<svg xmlns="http://www.w3.org/2000/svg" width="1280" height="157" viewBox="0 0 1280 157" version="1.1"><path d="M 58.680 2.653 C 57.099 4.234, 58.116 6.991, 60.500 7.589 C 61.875 7.934, 63 8.543, 63 8.941 C 63 9.339, 58.240 22.228, 52.422 37.582 C 46.604 52.937, 40.317 69.550, 38.451 74.500 C 20.582 121.902, 17.375 129.500, 14.688 130.805 C 13.210 131.522, 12 132.535, 12 133.055 C 12 133.575, 9.750 134, 7 134 L 2 134 2 144.501 L 2 155.002 640.250 154.751 L 1278.500 154.500 1278.500 144.500 L 1278.500 134.500 1272.250 134.202 C 1268.813 134.039, 1266 133.501, 1266 133.007 C 1266 132.513, 1264.763 131.516, 1263.250 130.791 L 1260.500 129.474 1260.221 91.987 C 1260.068 71.369, 1260.182 53.519, 1260.473 52.319 C 1260.786 51.033, 1261.925 50.008, 1263.252 49.819 C 1264.727 49.610, 1265.500 48.812, 1265.500 47.500 C 1265.500 45.574, 1264.833 45.500, 1247.500 45.500 C 1230.305 45.500, 1229.500 45.587, 1229.500 47.455 C 1229.500 48.716, 1230.387 49.619, 1232 49.999 L 1234.500 50.589 1234.718 70.044 L 1234.935 89.500 1224.850 79 C 1219.304 73.225, 1211.334 64.728, 1207.140 60.117 C 1199.543 51.767, 1199.522 51.729, 1201.757 50.245 C 1202.991 49.426, 1204 47.911, 1204 46.878 C 1204 45.092, 1202.803 45, 1179.500 45 C 1155.567 45, 1155 45.047, 1155 47.025 C 1155 48.264, 1155.969 49.418, 1157.500 50 L 1160 50.950 1160 90.500 L 1160 130.050 1157.500 131 C 1156.125 131.523, 1155 132.412, 1155 132.975 C 1155 133.607, 1151.161 134, 1145 134 C 1137.152 134, 1135 133.702, 1135 132.617 C 1135 131.856, 1134.102 130.999, 1133.005 130.712 C 1131.908 130.425, 1130.712 129.360, 1130.347 128.345 C 1129.982 127.330, 1123.613 113.675, 1116.195 98 C 1093.607 50.274, 1093.843 50.835, 1095.708 49.472 C 1096.657 48.778, 1097.064 47.610, 1096.694 46.645 C 1096.136 45.190, 1093.623 45, 1075 45 C 1056.377 45, 1053.864 45.190, 1053.306 46.645 C 1052.938 47.605, 1053.338 48.774, 1054.268 49.454 C 1056.189 50.858, 1057.749 47.035, 1025.281 120.500 C 1023.337 124.900, 1020.425 129.737, 1018.811 131.250 C 1015.997 133.887, 1015.447 134, 1005.438 134 C 997.052 134, 995 133.719, 995 132.570 C 995 131.783, 993.987 130.995, 992.750 130.820 L 990.500 130.500 990.241 81.771 L 989.981 33.043 992.491 32.413 C 994.073 32.016, 995 31.078, 995 29.876 C 995 28.039, 993.977 27.978, 967.263 28.234 C 942.617 28.470, 939.492 28.681, 939.215 30.121 C 939.031 31.074, 939.744 31.961, 940.947 32.276 C 942.070 32.570, 943.237 33.454, 943.539 34.240 C 944.077 35.643, 926.090 74.930, 924.889 74.976 C 924.162 75.004, 908.416 39.641, 907.507 35.938 C 906.990 33.835, 907.350 33.162, 909.517 32.174 C 910.969 31.513, 911.972 30.415, 911.746 29.736 C 911.436 28.805, 904.752 28.434, 884.667 28.234 C 859.003 27.977, 858 28.039, 858 29.875 C 858 31.078, 858.927 32.016, 860.509 32.413 L 863.019 33.043 862.759 81.758 C 862.505 129.578, 862.463 130.480, 860.500 130.848 C 859.400 131.054, 858.140 131.848, 857.700 132.611 C 857.085 133.679, 854.022 134, 844.450 134 C 837.296 134, 832 133.598, 832 133.055 C 832 132.535, 830.763 131.516, 829.250 130.791 L 826.500 129.474 826.221 91.987 C 826.068 71.369, 826.182 53.519, 826.473 52.319 C 826.786 51.033, 827.925 50.008, 829.252 49.819 C 830.727 49.610, 831.500 48.812, 831.500 47.500 C 831.500 45.574, 830.833 45.500, 813.500 45.500 C 796.305 45.500, 795.500 45.587, 795.500 47.455 C 795.500 48.716, 796.387 49.619, 798 49.999 L 800.500 50.589 800.717 70.044 L 800.934 89.500 791.342 79.500 C 786.066 74, 778.130 65.481, 773.705 60.569 C 765.792 51.784, 765.695 51.614, 767.830 50.197 C 769.023 49.404, 770 47.903, 770 46.860 C 770 45.044, 768.983 44.976, 745.763 45.232 C 723.615 45.477, 721.497 45.651, 721.190 47.247 C 720.977 48.359, 721.740 49.331, 723.291 49.920 C 724.631 50.430, 726.014 51.593, 726.364 52.505 C 727.471 55.391, 727.098 126.948, 725.965 129.066 C 725.395 130.130, 724.256 131, 723.433 131 C 722.611 131, 721.678 131.675, 721.362 132.500 C 720.867 133.789, 716.679 133.988, 691.643 133.914 C 675.614 133.867, 663.625 133.484, 665 133.063 C 669.884 131.568, 677.538 127.145, 680.089 124.343 C 689.019 114.536, 689.996 110.077, 690.014 79.040 C 690.021 65.543, 690.292 53.513, 690.616 52.306 C 690.947 51.071, 692.142 49.979, 693.352 49.806 C 694.697 49.615, 695.619 48.659, 695.820 47.250 L 696.139 45 677.570 45 L 659 45 659 47.393 C 659 48.709, 659.675 50.045, 660.500 50.362 C 661.780 50.853, 662 54.756, 662 77.001 C 662 107.302, 661.674 108.885, 654.788 112.010 C 648.978 114.647, 637.106 114.685, 631.383 112.086 C 623.941 108.707, 624 108.977, 624 78.138 C 624 53.730, 624.182 50.587, 625.662 49.505 C 626.660 48.776, 627.069 47.622, 626.685 46.622 C 626.115 45.136, 624.063 44.984, 607.773 45.227 C 590.400 45.487, 589.500 45.596, 589.500 47.455 C 589.500 48.716, 590.387 49.619, 592 49.999 L 594.500 50.587 595.023 78.544 C 595.599 109.334, 596.145 112.495, 602.268 120.500 C 606.531 126.074, 610.252 128.915, 616.834 131.622 L 622.500 133.953 577.500 133.897 C 537.451 133.847, 533.160 133.693, 538.500 132.498 C 552.984 129.258, 570 122.254, 570 119.533 C 570 118.744, 569.212 117.659, 568.250 117.120 C 566.684 116.244, 566.500 114.242, 566.500 98.113 C 566.500 81.547, 566.654 79.973, 568.403 78.695 C 572.877 75.423, 569.510 75, 538.998 75 C 509.633 75, 509.087 74.963, 507.620 72.869 C 506.710 71.568, 505.518 70.971, 504.564 71.337 C 502.175 72.254, 502.235 99.769, 504.628 100.687 C 505.655 101.081, 506.866 100.504, 507.907 99.124 C 509.471 97.049, 510.204 96.950, 521.914 97.217 L 534.270 97.500 534.268 102.783 C 534.267 105.689, 533.991 108.342, 533.654 108.679 C 532.374 109.960, 518.140 111.897, 509.644 111.947 C 494.383 112.038, 482.791 107.574, 475.990 98.988 C 464.304 84.232, 470.235 62.553, 488.160 54.509 C 496.794 50.634, 508.759 50.030, 522.111 52.794 C 534.613 55.382, 540.730 58.063, 541.168 61.147 C 541.351 62.430, 542.177 63.608, 543.005 63.766 C 544.041 63.963, 546.459 60.141, 550.755 51.516 C 554.190 44.621, 557 38.336, 557 37.549 C 557 35.454, 555.130 34.647, 553.469 36.025 C 552.326 36.975, 550.726 36.710, 545.763 34.754 C 530.561 28.759, 523.778 27.571, 505 27.614 C 488.097 27.652, 487.176 27.761, 478 30.805 C 461.226 36.369, 449.943 45.811, 443.112 60 C 439.684 67.121, 439.484 68.107, 439.155 79.500 C 438.778 92.574, 440.345 99.613, 445.644 108.655 C 451.392 118.464, 466.100 129.015, 478.986 132.575 C 482.717 133.605, 471.918 133.837, 416.750 133.911 C 373.462 133.969, 350 133.653, 350 133.013 C 350 132.471, 348.538 131.408, 346.750 130.653 C 344.244 129.593, 340.180 124.554, 329.004 108.651 C 321.031 97.306, 314.356 87.569, 314.171 87.012 C 313.985 86.455, 314.522 86, 315.363 86 C 318.670 86, 332.759 77.673, 337.697 72.801 C 343.830 66.750, 346.598 60.866, 348.032 50.834 C 350.688 32.253, 343.354 15.612, 329.621 9.058 C 316.472 2.782, 315.698 2.710, 257.103 2.264 C 202.698 1.851, 202.081 1.885, 202.015 5.301 C 202.007 5.742, 203.575 6.760, 205.500 7.564 L 209 9.027 209 69.538 L 209 130.050 206.064 130.637 C 204.449 130.960, 202.888 131.849, 202.595 132.612 C 202.177 133.702, 199.146 134, 188.498 134 L 174.933 134 171.650 130.717 C 169.845 128.911, 166.865 123.849, 165.029 119.467 C 151.003 85.993, 121 10.969, 121 9.369 C 121 8.690, 121.926 7.841, 123.058 7.481 C 124.457 7.038, 125.018 6.134, 124.808 4.664 C 124.500 2.502, 124.468 2.500, 91.930 2.237 C 74.017 2.092, 59.054 2.279, 58.680 2.653 M 60 4.933 C 60 5.446, 60.900 6.151, 62 6.500 C 63.100 6.849, 64 7.956, 64 8.960 C 64 9.965, 59.240 23.322, 53.422 38.643 C 47.604 53.964, 40.888 71.675, 38.496 78 C 25.378 112.699, 19.054 128.432, 17.646 129.880 C 13.131 134.520, 12.196 135, 7.666 135 L 3 135 3 144.500 L 3 154 640 154 L 1277 154 1277 144.500 L 1277 135 1271 135 C 1267.700 135, 1265 134.575, 1265 134.055 C 1265 133.535, 1263.763 132.516, 1262.250 131.791 L 1259.500 130.474 1259.239 90.244 L 1258.977 50.015 1262.239 48.589 C 1265.219 47.286, 1263.949 47.162, 1247.500 47.149 C 1233.124 47.138, 1230.003 47.368, 1232 48.290 C 1233.375 48.925, 1234.831 49.907, 1235.235 50.472 C 1236.332 52.007, 1236.171 91, 1235.068 91 C 1233.819 91, 1200.759 55.507, 1199.554 52.873 C 1198.794 51.214, 1199.091 50.433, 1201.054 48.925 C 1203.469 47.068, 1203.197 47.044, 1179.691 47.022 C 1164.067 47.008, 1156.094 47.344, 1156.500 48 C 1156.840 48.550, 1157.778 49, 1158.584 49 C 1159.390 49, 1160.488 50.154, 1161.025 51.565 C 1162.320 54.971, 1162.320 126.029, 1161.025 129.435 C 1160.488 130.846, 1159.349 132, 1158.493 132 C 1157.637 132, 1156.678 132.675, 1156.362 133.500 C 1155.510 135.720, 1134 135.720, 1134 133.500 C 1134 132.675, 1133.296 132, 1132.435 132 C 1131.429 132, 1129.153 128.338, 1126.065 121.750 C 1123.423 116.112, 1114.902 98.118, 1107.130 81.762 C 1099.359 65.405, 1093 51.505, 1093 50.872 C 1093 50.239, 1093.787 49.123, 1094.750 48.392 C 1096.222 47.274, 1093.089 47.064, 1075 47.064 C 1056.911 47.064, 1053.778 47.274, 1055.250 48.392 C 1056.213 49.123, 1057 50.175, 1057 50.731 C 1057 51.287, 1052.462 62.037, 1046.917 74.621 C 1041.371 87.204, 1033.671 104.700, 1029.805 113.500 C 1025.263 123.839, 1021.733 130.473, 1019.827 132.250 C 1016.965 134.918, 1016.535 135, 1005.438 135 C 995.938 135, 994 134.746, 994 133.500 C 994 132.675, 993.190 132, 992.200 132 C 988.034 132, 988 131.591, 988 81.871 C 988 39.815, 988.187 33.956, 989.571 32.571 C 990.436 31.707, 991.786 31, 992.571 31 C 993.357 31, 994 30.550, 994 30 C 994 28.880, 941.786 28.548, 940.673 29.661 C 940.309 30.024, 941.022 30.837, 942.256 31.467 C 945.995 33.376, 944.842 37.434, 934.551 58.585 C 924.964 78.289, 924.846 78.471, 923.421 75.792 C 920.289 69.906, 906.875 38.626, 906.345 35.974 C 905.912 33.810, 906.272 32.847, 907.890 31.836 C 909.051 31.112, 910 30.177, 910 29.759 C 910 29.342, 898.525 29, 884.500 29 C 861.331 29, 854.640 29.689, 861.381 31.381 C 862.707 31.714, 864.029 32.979, 864.367 34.239 C 865.401 38.099, 865.083 126.652, 864.025 129.435 C 863.421 131.023, 862.278 132, 861.025 132 C 859.892 132, 859 132.661, 859 133.500 C 859 134.762, 856.778 135, 845 135 C 836.872 135, 831 134.603, 831 134.055 C 831 133.535, 829.763 132.516, 828.250 131.791 L 825.500 130.474 825.222 91.987 C 825.069 70.819, 825.167 52.579, 825.439 51.454 C 825.712 50.329, 827.188 48.915, 828.718 48.311 C 830.901 47.449, 827.624 47.204, 813.500 47.174 C 799.139 47.143, 796.005 47.369, 798 48.290 C 799.375 48.925, 800.831 49.907, 801.235 50.472 C 802.316 51.984, 802.172 91, 801.086 91 C 799.867 91, 766.764 55.452, 765.554 52.844 C 764.797 51.214, 765.098 50.428, 767.054 48.925 C 769.469 47.068, 769.197 47.044, 745.691 47.022 C 730.067 47.008, 722.094 47.344, 722.500 48 C 722.840 48.550, 723.751 49, 724.524 49 C 727.669 49, 728 52.948, 728 90.500 C 728 127.928, 727.664 132, 724.572 132 C 723.825 132, 722.955 132.675, 722.638 133.500 C 722.143 134.791, 717.526 135, 689.531 135 C 659.564 135, 650.739 134.257, 661.076 132.604 C 666.694 131.705, 675.879 126.856, 679.570 122.841 C 688.067 113.594, 689 109.038, 689 76.775 L 689 50.971 692.250 48.989 L 695.500 47.007 677.750 47.004 C 661.781 47, 657.112 47.678, 661.500 49.362 C 662.782 49.854, 663 53.867, 663 77.001 C 663 108.554, 662.811 109.461, 655.485 113.007 C 648.886 116.202, 636.396 116.266, 630.265 113.136 C 622.561 109.204, 622.540 109.115, 622.192 78.390 C 621.885 51.290, 621.892 51.178, 624.130 49.093 L 626.377 47 608.689 47 C 598.960 47, 591 47.236, 591 47.525 C 591 47.813, 592.125 48.477, 593.500 49 L 596 49.950 596.020 73.225 C 596.042 99.021, 596.919 107.723, 600.204 114.711 C 604.338 123.506, 614.397 130.998, 624.272 132.637 C 635.301 134.467, 624.413 135, 576 135 C 540.843 135, 523.091 134.662, 523.500 134 C 523.840 133.450, 525.636 133, 527.491 133 C 535.580 133, 568 122.587, 568 119.989 C 568 119.580, 567.325 118.685, 566.500 118 C 565.267 116.976, 565 113.501, 565 98.449 C 565 83.510, 565.276 79.867, 566.500 78.643 C 567.325 77.818, 568 76.886, 568 76.571 C 568 76.257, 554.555 76, 538.122 76 C 508.269 76, 508.243 75.998, 506.674 73.750 C 505.217 71.661, 505.105 72.537, 505.105 86 C 505.105 99.463, 505.217 100.339, 506.674 98.250 C 508.174 96.100, 508.862 96, 522.122 96 L 536 96 536 102.465 C 536 109.993, 535.796 110.184, 526 111.820 C 509.133 114.638, 496.046 113.653, 486.374 108.837 C 480.110 105.718, 473.316 98.969, 470.868 93.434 C 468.630 88.374, 468.202 78.676, 469.935 72.243 C 472.044 64.411, 478.921 57.222, 488.555 52.780 C 492.945 50.756, 495.015 50.504, 507 50.535 C 517.897 50.564, 522.012 51.002, 528.343 52.808 C 538.419 55.682, 542 57.559, 542 59.967 C 542 64.526, 543.988 62.094, 549.801 50.426 C 553.210 43.580, 556 37.723, 556 37.410 C 556 37.097, 554.730 37.120, 553.177 37.461 C 551.345 37.864, 548.634 37.343, 545.448 35.978 C 542.749 34.821, 536.256 32.705, 531.020 31.276 C 522.623 28.984, 519.613 28.678, 505.500 28.675 C 490.964 28.673, 488.677 28.921, 480.500 31.389 C 454.578 39.215, 440.048 57.212, 440.012 81.540 C 439.976 105.522, 453.911 123.465, 478.355 130.912 C 482.126 132.060, 486.288 133, 487.605 133 C 488.922 133, 490 133.450, 490 134 C 490 134.657, 466.015 135, 420.044 135 L 350.089 135 346.304 132.431 C 342.002 129.512, 311.322 87.193, 312.679 86.051 C 313.131 85.670, 316.589 84.081, 320.364 82.519 C 332.004 77.701, 339.976 70.637, 344.270 61.332 C 346.201 57.148, 346.500 54.819, 346.500 43.977 C 346.500 31.854, 346.396 31.243, 343.229 24.813 C 339.512 17.264, 334.912 12.765, 327.390 9.321 C 316.715 4.434, 310.848 4, 255.412 4 C 227.135 4, 204.010 4.338, 204.022 4.750 C 204.034 5.162, 205.496 6.175, 207.272 7 L 210.500 8.500 210.758 68.301 C 210.931 108.387, 210.672 128.745, 209.973 130.051 C 209.399 131.123, 208.101 132, 207.087 132 C 206.074 132, 204.685 132.675, 204 133.500 C 203 134.706, 199.945 135, 188.439 135 C 168.993 135, 170.613 136.529, 158.248 106.500 C 139.078 59.941, 120 11.532, 120 9.445 C 120 8.013, 120.760 6.893, 122 6.500 C 128.137 4.552, 121.511 4, 92 4 C 72.875 4, 60 4.375, 60 4.933 M 88.182 29.087 C 87.691 30.414, 82.725 43.715, 77.145 58.644 C 71.565 73.573, 67 86.060, 67 86.394 C 67 86.727, 77.623 87, 90.607 87 C 109.084 87, 114.109 86.728, 113.729 85.750 C 108.308 71.767, 90.463 28.255, 89.876 27.587 C 89.428 27.077, 88.681 27.739, 88.182 29.087 M 79.181 56.907 C 73.582 71.910, 69 84.594, 69 85.093 C 69 85.608, 78.301 86, 90.500 86 C 102.325 86, 112 85.754, 112 85.454 C 112 84.922, 95.039 42.894, 91.261 34.064 L 89.362 29.628 79.181 56.907 M 247.465 32.231 C 247.174 32.990, 247.062 39.211, 247.218 46.055 L 247.500 58.500 272 58.799 C 287.512 58.989, 297.866 58.702, 300.224 58.017 C 310.968 54.896, 312.476 39.356, 302.614 33.386 C 299.819 31.693, 296.863 31.467, 273.747 31.175 C 252.552 30.908, 247.901 31.095, 247.465 32.231 M 249 44.922 L 249 58 272.250 57.994 C 285.038 57.991, 297.159 57.528, 299.186 56.965 C 306.829 54.842, 310.261 46.274, 306.434 38.872 C 303.523 33.242, 300.199 32.573, 273.250 32.189 L 249 31.844 249 44.922 M 888.047 91.731 L 888 130.962 890.428 131.571 C 891.763 131.906, 893.099 132.815, 893.396 133.590 C 894.202 135.690, 953.798 135.690, 954.604 133.590 C 954.901 132.815, 956.237 131.906, 957.572 131.571 L 960 130.962 960 92.281 C 960 70.497, 959.623 54.015, 959.136 54.550 C 958.661 55.072, 950.674 72.249, 941.386 92.720 C 932.099 113.191, 924.223 129.953, 923.885 129.970 C 923.547 129.986, 916.396 114.588, 907.994 95.750 C 899.591 76.912, 891.676 59.475, 890.405 57 L 888.093 52.500 888.047 91.731 M 889.025 93.152 L 889 129.804 892 130.850 C 893.650 131.425, 895 132.369, 895 132.948 C 895 133.660, 904.387 134, 924.031 134 C 948.089 134, 953.155 133.758, 953.604 132.590 C 953.901 131.815, 955.237 130.906, 956.572 130.571 L 959 129.962 959 94.281 C 959 74.656, 958.626 59.027, 958.169 59.550 C 957.713 60.072, 952.240 71.750, 946.007 85.500 C 939.775 99.250, 932.901 114.325, 930.733 119 C 928.565 123.675, 926.385 128.549, 925.889 129.831 C 925.393 131.113, 924.428 131.982, 923.744 131.761 C 922.681 131.418, 914.220 113.164, 893.492 66.500 L 889.050 56.500 889.025 93.152 M 1072.074 70.250 C 1071.593 71.487, 1068.229 78.744, 1064.599 86.375 C 1060.970 94.006, 1058 100.869, 1058 101.625 C 1058 102.734, 1061.082 103, 1073.941 103 C 1082.709 103, 1090.127 102.604, 1090.426 102.120 C 1091.162 100.928, 1075.299 68, 1073.988 68 C 1073.418 68, 1072.556 69.013, 1072.074 70.250 M 1066.329 85.517 L 1059.158 101 1074.162 101 C 1082.415 101, 1089.017 100.616, 1088.833 100.147 C 1087.138 95.809, 1074.482 70.004, 1074.056 70.017 C 1073.750 70.027, 1070.273 77.002, 1066.329 85.517 M 751 103.398 L 751 130.962 753.500 131.589 C 754.875 131.934, 756 132.843, 756 133.608 C 756 135.694, 793.531 135.663, 794.332 133.578 C 794.632 132.795, 795.918 132.008, 797.189 131.828 C 798.661 131.619, 799.612 130.717, 799.807 129.343 C 800.035 127.745, 796.795 123.657, 787.307 113.571 C 780.263 106.083, 769.649 94.679, 763.720 88.228 C 757.792 81.778, 752.504 76.350, 751.970 76.167 C 751.359 75.957, 751 86.019, 751 103.398 M 1185.234 103.661 L 1185.500 131.500 1187.750 131.820 C 1188.987 131.995, 1190 132.783, 1190 133.570 C 1190 135.689, 1227.518 135.697, 1228.332 133.578 C 1228.632 132.795, 1229.918 132.008, 1231.189 131.828 C 1236.388 131.091, 1234.557 127.790, 1220.800 113.102 C 1213.485 105.291, 1202.855 93.861, 1197.179 87.701 C 1191.502 81.540, 1186.432 76.348, 1185.913 76.161 C 1185.330 75.953, 1185.070 86.500, 1185.234 103.661 M 371 90.500 L 371 103 398 103 L 425 103 425 90.500 L 425 78 398 78 L 371 78 371 90.500 M 752 103.743 L 752 129.962 754.500 130.589 C 755.875 130.934, 757 131.843, 757 132.608 C 757 134.759, 792.536 134.653, 793.362 132.500 C 793.678 131.675, 794.825 131, 795.910 131 C 798.701 131, 799.418 129.280, 797.699 126.706 C 796.889 125.493, 789.762 117.746, 781.863 109.490 C 773.963 101.235, 764.013 90.665, 759.750 86.002 L 752 77.523 752 103.743 M 1186.242 104 L 1186.500 130.500 1188.750 130.820 C 1189.987 130.995, 1191 131.783, 1191 132.570 C 1191 134.754, 1226.523 134.686, 1227.362 132.500 C 1227.678 131.675, 1228.825 131, 1229.910 131 C 1233.073 131, 1233.353 129.150, 1230.711 125.707 C 1229.358 123.943, 1222.007 115.972, 1214.376 107.994 C 1206.744 100.016, 1197.234 89.891, 1193.242 85.494 L 1185.985 77.500 1186.242 104 M 372.217 90.250 L 372.500 101.500 398.250 101.767 L 424 102.034 424 90.517 L 424 79 397.967 79 L 371.934 79 372.217 90.250 M 247.696 85.637 C 246.838 86.496, 246.790 125.616, 247.644 128.801 C 248.043 130.291, 249.248 131.300, 251.066 131.663 C 252.609 131.972, 254.112 132.849, 254.405 133.612 C 255.228 135.757, 296.537 135.649, 297.362 133.500 C 297.678 132.675, 298.611 132, 299.433 132 C 300.256 132, 301.399 131.123, 301.972 130.051 C 302.844 128.423, 301.863 126.410, 296.002 117.801 C 292.145 112.136, 285.270 102.550, 280.725 96.500 L 272.460 85.500 260.426 85.221 C 253.807 85.067, 248.079 85.255, 247.696 85.637 M 249 108.525 L 249 130.050 252.086 130.667 C 253.783 131.007, 255.406 131.895, 255.693 132.642 C 256.108 133.723, 260.273 134, 276.107 134 C 289.023 134, 296 133.641, 296 132.975 C 296 132.412, 297.125 131.523, 298.500 131 C 299.888 130.472, 300.990 129.260, 300.978 128.275 C 300.966 127.299, 296.215 119.975, 290.421 112 C 284.626 104.025, 278.224 95.155, 276.193 92.288 L 272.500 87.076 260.750 87.038 L 249 87 249 108.525 M 60.608 106.825 C 59.143 109.195, 53 127.546, 53 129.552 C 53 130.987, 53.759 132.106, 55 132.500 C 56.100 132.849, 57 133.554, 57 134.067 C 57 134.626, 70.447 135, 90.500 135 C 112.706 135, 124 134.655, 124 133.975 C 124 133.412, 125.125 132.523, 126.500 132 C 127.875 131.477, 128.998 130.476, 128.996 129.775 C 128.994 129.074, 127.044 123.550, 124.662 117.500 L 120.332 106.500 90.734 106.235 C 74.455 106.090, 60.899 106.355, 60.608 106.825 M 57.636 118.312 C 53.550 129.901, 53.367 131, 55.531 131 C 56.374 131, 57.322 131.675, 57.638 132.500 C 58.134 133.791, 62.736 134, 90.607 134 C 112.057 134, 123 133.654, 123 132.975 C 123 132.412, 124.162 131.509, 125.581 130.969 C 127.001 130.429, 128.013 129.627, 127.831 129.186 C 127.649 128.746, 125.737 123.799, 123.582 118.193 L 119.664 108 90.468 108 L 61.273 108 57.636 118.312 M 1049.521 119.482 C 1044.555 130.968, 1044.796 129.846, 1046.725 132.497 L 1048.500 134.937 1074.500 134.937 L 1100.500 134.937 1102.351 132.396 C 1104.179 129.888, 1104.164 129.771, 1101.218 123.178 L 1098.234 116.500 1074.638 116.232 L 1051.042 115.964 1049.521 119.482 M 1049.106 123.564 C 1047.015 128.392, 1046.878 129.404, 1048.025 131.547 L 1049.338 134 1074.169 134 C 1097.444 134, 1099.122 133.878, 1100.948 132.052 C 1102.878 130.122, 1102.872 130.050, 1100.284 124.052 L 1097.673 118 1074.586 118.017 L 1051.500 118.034 1049.106 123.564" stroke="none" fill="#695942" fill-rule="evenodd"/><path d="M 60 4.933 C 60 5.446, 60.900 6.151, 62 6.500 C 63.100 6.849, 64 7.956, 64 8.960 C 64 9.965, 59.240 23.322, 53.422 38.643 C 47.604 53.964, 40.888 71.675, 38.496 78 C 25.378 112.699, 19.054 128.432, 17.646 129.880 C 13.131 134.520, 12.196 135, 7.666 135 L 3 135 3 144.500 L 3 154 640 154 L 1277 154 1277 144.500 L 1277 135 1271 135 C 1267.700 135, 1265 134.575, 1265 134.055 C 1265 133.535, 1263.763 132.516, 1262.250 131.791 L 1259.500 130.474 1259.239 90.244 L 1258.977 50.015 1262.239 48.589 C 1265.219 47.286, 1263.949 47.162, 1247.500 47.149 C 1233.124 47.138, 1230.003 47.368, 1232 48.290 C 1233.375 48.925, 1234.831 49.907, 1235.235 50.472 C 1236.332 52.007, 1236.171 91, 1235.068 91 C 1233.819 91, 1200.759 55.507, 1199.554 52.873 C 1198.794 51.214, 1199.091 50.433, 1201.054 48.925 C 1203.469 47.068, 1203.197 47.044, 1179.691 47.022 C 1164.067 47.008, 1156.094 47.344, 1156.500 48 C 1156.840 48.550, 1157.778 49, 1158.584 49 C 1159.390 49, 1160.488 50.154, 1161.025 51.565 C 1162.320 54.971, 1162.320 126.029, 1161.025 129.435 C 1160.488 130.846, 1159.349 132, 1158.493 132 C 1157.637 132, 1156.678 132.675, 1156.362 133.500 C 1155.510 135.720, 1134 135.720, 1134 133.500 C 1134 132.675, 1133.296 132, 1132.435 132 C 1131.429 132, 1129.153 128.338, 1126.065 121.750 C 1123.423 116.112, 1114.902 98.118, 1107.130 81.762 C 1099.359 65.405, 1093 51.505, 1093 50.872 C 1093 50.239, 1093.787 49.123, 1094.750 48.392 C 1096.222 47.274, 1093.089 47.064, 1075 47.064 C 1056.911 47.064, 1053.778 47.274, 1055.250 48.392 C 1056.213 49.123, 1057 50.175, 1057 50.731 C 1057 51.287, 1052.462 62.037, 1046.917 74.621 C 1041.371 87.204, 1033.671 104.700, 1029.805 113.500 C 1025.263 123.839, 1021.733 130.473, 1019.827 132.250 C 1016.965 134.918, 1016.535 135, 1005.438 135 C 995.938 135, 994 134.746, 994 133.500 C 994 132.675, 993.190 132, 992.200 132 C 988.034 132, 988 131.591, 988 81.871 C 988 39.815, 988.187 33.956, 989.571 32.571 C 990.436 31.707, 991.786 31, 992.571 31 C 993.357 31, 994 30.550, 994 30 C 994 28.880, 941.786 28.548, 940.673 29.661 C 940.309 30.024, 941.022 30.837, 942.256 31.467 C 945.995 33.376, 944.842 37.434, 934.551 58.585 C 924.964 78.289, 924.846 78.471, 923.421 75.792 C 920.289 69.906, 906.875 38.626, 906.345 35.974 C 905.912 33.810, 906.272 32.847, 907.890 31.836 C 909.051 31.112, 910 30.177, 910 29.759 C 910 29.342, 898.525 29, 884.500 29 C 861.331 29, 854.640 29.689, 861.381 31.381 C 862.707 31.714, 864.029 32.979, 864.367 34.239 C 865.401 38.099, 865.083 126.652, 864.025 129.435 C 863.421 131.023, 862.278 132, 861.025 132 C 859.892 132, 859 132.661, 859 133.500 C 859 134.762, 856.778 135, 845 135 C 836.872 135, 831 134.603, 831 134.055 C 831 133.535, 829.763 132.516, 828.250 131.791 L 825.500 130.474 825.222 91.987 C 825.069 70.819, 825.167 52.579, 825.439 51.454 C 825.712 50.329, 827.188 48.915, 828.718 48.311 C 830.901 47.449, 827.624 47.204, 813.500 47.174 C 799.139 47.143, 796.005 47.369, 798 48.290 C 799.375 48.925, 800.831 49.907, 801.235 50.472 C 802.316 51.984, 802.172 91, 801.086 91 C 799.867 91, 766.764 55.452, 765.554 52.844 C 764.797 51.214, 765.098 50.428, 767.054 48.925 C 769.469 47.068, 769.197 47.044, 745.691 47.022 C 730.067 47.008, 722.094 47.344, 722.500 48 C 722.840 48.550, 723.751 49, 724.524 49 C 727.669 49, 728 52.948, 728 90.500 C 728 127.928, 727.664 132, 724.572 132 C 723.825 132, 722.955 132.675, 722.638 133.500 C 722.143 134.791, 717.526 135, 689.531 135 C 659.564 135, 650.739 134.257, 661.076 132.604 C 666.694 131.705, 675.879 126.856, 679.570 122.841 C 688.067 113.594, 689 109.038, 689 76.775 L 689 50.971 692.250 48.989 L 695.500 47.007 677.750 47.004 C 661.781 47, 657.112 47.678, 661.500 49.362 C 662.782 49.854, 663 53.867, 663 77.001 C 663 108.554, 662.811 109.461, 655.485 113.007 C 648.886 116.202, 636.396 116.266, 630.265 113.136 C 622.561 109.204, 622.540 109.115, 622.192 78.390 C 621.885 51.290, 621.892 51.178, 624.130 49.093 L 626.377 47 608.689 47 C 598.960 47, 591 47.236, 591 47.525 C 591 47.813, 592.125 48.477, 593.500 49 L 596 49.950 596.020 73.225 C 596.042 99.021, 596.919 107.723, 600.204 114.711 C 604.338 123.506, 614.397 130.998, 624.272 132.637 C 635.301 134.467, 624.413 135, 576 135 C 540.843 135, 523.091 134.662, 523.500 134 C 523.840 133.450, 525.636 133, 527.491 133 C 535.580 133, 568 122.587, 568 119.989 C 568 119.580, 567.325 118.685, 566.500 118 C 565.267 116.976, 565 113.501, 565 98.449 C 565 83.510, 565.276 79.867, 566.500 78.643 C 567.325 77.818, 568 76.886, 568 76.571 C 568 76.257, 554.555 76, 538.122 76 C 508.269 76, 508.243 75.998, 506.674 73.750 C 505.217 71.661, 505.105 72.537, 505.105 86 C 505.105 99.463, 505.217 100.339, 506.674 98.250 C 508.174 96.100, 508.862 96, 522.122 96 L 536 96 536 102.465 C 536 109.993, 535.796 110.184, 526 111.820 C 509.133 114.638, 496.046 113.653, 486.374 108.837 C 480.110 105.718, 473.316 98.969, 470.868 93.434 C 468.630 88.374, 468.202 78.676, 469.935 72.243 C 472.044 64.411, 478.921 57.222, 488.555 52.780 C 492.945 50.756, 495.015 50.504, 507 50.535 C 517.897 50.564, 522.012 51.002, 528.343 52.808 C 538.419 55.682, 542 57.559, 542 59.967 C 542 64.526, 543.988 62.094, 549.801 50.426 C 553.210 43.580, 556 37.723, 556 37.410 C 556 37.097, 554.730 37.120, 553.177 37.461 C 551.345 37.864, 548.634 37.343, 545.448 35.978 C 542.749 34.821, 536.256 32.705, 531.020 31.276 C 522.623 28.984, 519.613 28.678, 505.500 28.675 C 490.964 28.673, 488.677 28.921, 480.500 31.389 C 454.578 39.215, 440.048 57.212, 440.012 81.540 C 439.976 105.522, 453.911 123.465, 478.355 130.912 C 482.126 132.060, 486.288 133, 487.605 133 C 488.922 133, 490 133.450, 490 134 C 490 134.657, 466.015 135, 420.044 135 L 350.089 135 346.304 132.431 C 342.002 129.512, 311.322 87.193, 312.679 86.051 C 313.131 85.670, 316.589 84.081, 320.364 82.519 C 332.004 77.701, 339.976 70.637, 344.270 61.332 C 346.201 57.148, 346.500 54.819, 346.500 43.977 C 346.500 31.854, 346.396 31.243, 343.229 24.813 C 339.512 17.264, 334.912 12.765, 327.390 9.321 C 316.715 4.434, 310.848 4, 255.412 4 C 227.135 4, 204.010 4.338, 204.022 4.750 C 204.034 5.162, 205.496 6.175, 207.272 7 L 210.500 8.500 210.758 68.301 C 210.931 108.387, 210.672 128.745, 209.973 130.051 C 209.399 131.123, 208.101 132, 207.087 132 C 206.074 132, 204.685 132.675, 204 133.500 C 203 134.706, 199.945 135, 188.439 135 C 168.993 135, 170.613 136.529, 158.248 106.500 C 139.078 59.941, 120 11.532, 120 9.445 C 120 8.013, 120.760 6.893, 122 6.500 C 128.137 4.552, 121.511 4, 92 4 C 72.875 4, 60 4.375, 60 4.933 M 88.182 29.087 C 87.691 30.414, 82.725 43.715, 77.145 58.644 C 71.565 73.573, 67 86.060, 67 86.394 C 67 86.727, 77.623 87, 90.607 87 C 109.084 87, 114.109 86.728, 113.729 85.750 C 108.308 71.767, 90.463 28.255, 89.876 27.587 C 89.428 27.077, 88.681 27.739, 88.182 29.087 M 247.465 32.231 C 247.174 32.990, 247.062 39.211, 247.218 46.055 L 247.500 58.500 272 58.799 C 287.512 58.989, 297.866 58.702, 300.224 58.017 C 310.968 54.896, 312.476 39.356, 302.614 33.386 C 299.819 31.693, 296.863 31.467, 273.747 31.175 C 252.552 30.908, 247.901 31.095, 247.465 32.231 M 888.047 91.731 L 888 130.962 890.428 131.571 C 891.763 131.906, 893.099 132.815, 893.396 133.590 C 894.202 135.690, 953.798 135.690, 954.604 133.590 C 954.901 132.815, 956.237 131.906, 957.572 131.571 L 960 130.962 960 92.281 C 960 70.497, 959.623 54.015, 959.136 54.550 C 958.661 55.072, 950.674 72.249, 941.386 92.720 C 932.099 113.191, 924.223 129.953, 923.885 129.970 C 923.547 129.986, 916.396 114.588, 907.994 95.750 C 899.591 76.912, 891.676 59.475, 890.405 57 L 888.093 52.500 888.047 91.731 M 1072.074 70.250 C 1071.593 71.487, 1068.229 78.744, 1064.599 86.375 C 1060.970 94.006, 1058 100.869, 1058 101.625 C 1058 102.734, 1061.082 103, 1073.941 103 C 1082.709 103, 1090.127 102.604, 1090.426 102.120 C 1091.162 100.928, 1075.299 68, 1073.988 68 C 1073.418 68, 1072.556 69.013, 1072.074 70.250 M 751 103.398 L 751 130.962 753.500 131.589 C 754.875 131.934, 756 132.843, 756 133.608 C 756 135.694, 793.531 135.663, 794.332 133.578 C 794.632 132.795, 795.918 132.008, 797.189 131.828 C 798.661 131.619, 799.612 130.717, 799.807 129.343 C 800.035 127.745, 796.795 123.657, 787.307 113.571 C 780.263 106.083, 769.649 94.679, 763.720 88.228 C 757.792 81.778, 752.504 76.350, 751.970 76.167 C 751.359 75.957, 751 86.019, 751 103.398 M 1185.234 103.661 L 1185.500 131.500 1187.750 131.820 C 1188.987 131.995, 1190 132.783, 1190 133.570 C 1190 135.689, 1227.518 135.697, 1228.332 133.578 C 1228.632 132.795, 1229.918 132.008, 1231.189 131.828 C 1236.388 131.091, 1234.557 127.790, 1220.800 113.102 C 1213.485 105.291, 1202.855 93.861, 1197.179 87.701 C 1191.502 81.540, 1186.432 76.348, 1185.913 76.161 C 1185.330 75.953, 1185.070 86.500, 1185.234 103.661 M 372.217 90.250 L 372.500 101.500 398.250 101.767 L 424 102.034 424 90.517 L 424 79 397.967 79 L 371.934 79 372.217 90.250 M 247.696 85.637 C 246.838 86.496, 246.790 125.616, 247.644 128.801 C 248.043 130.291, 249.248 131.300, 251.066 131.663 C 252.609 131.972, 254.112 132.849, 254.405 133.612 C 255.228 135.757, 296.537 135.649, 297.362 133.500 C 297.678 132.675, 298.611 132, 299.433 132 C 300.256 132, 301.399 131.123, 301.972 130.051 C 302.844 128.423, 301.863 126.410, 296.002 117.801 C 292.145 112.136, 285.270 102.550, 280.725 96.500 L 272.460 85.500 260.426 85.221 C 253.807 85.067, 248.079 85.255, 247.696 85.637 M 60.608 106.825 C 59.143 109.195, 53 127.546, 53 129.552 C 53 130.987, 53.759 132.106, 55 132.500 C 56.100 132.849, 57 133.554, 57 134.067 C 57 134.626, 70.447 135, 90.500 135 C 112.706 135, 124 134.655, 124 133.975 C 124 133.412, 125.125 132.523, 126.500 132 C 127.875 131.477, 128.998 130.476, 128.996 129.775 C 128.994 129.074, 127.044 123.550, 124.662 117.500 L 120.332 106.500 90.734 106.235 C 74.455 106.090, 60.899 106.355, 60.608 106.825 M 1049.521 119.482 C 1044.555 130.968, 1044.796 129.846, 1046.725 132.497 L 1048.500 134.937 1074.500 134.937 L 1100.500 134.937 1102.351 132.396 C 1104.179 129.888, 1104.164 129.771, 1101.218 123.178 L 1098.234 116.500 1074.638 116.232 L 1051.042 115.964 1049.521 119.482" stroke="none" fill="#050504" fill-rule="evenodd"/></svg>